# xmcd
#
# Track frame offsets: 
#        150
#        4095
#        21532
#        39235
#        54347
#        70807
#        87690
#        106355
#        124415
#        138245
#        153072
#        166470
#        183802
#
# Disc length: 2504 seconds
#
# Revision: 6
# Processed by: cddbd v1.5.1PL0 Copyright (c) Steve Scherf et al.
# Submitted via: ExactAudioCopy v0.95a5
#
DISCID=a609c60d
DTITLE=Patricia Kaas - Scène De Vie
DYEAR=1990
DGENRE=Jazz
TTITLE0=Générique (Thème Montmajour) (Intro)
TTITLE1=Les Mannequins D'Osier
TTITLE2=L'Heure Du Jazz
TTITLE3=Où Vont Les Coeurs Brisés
TTITLE4=Regarde Les Riches
TTITLE5=Les Hommes Qui Passent
TTITLE6=Bessie
TTITLE7=Tropic Blues Bar
TTITLE8=A L'Enterrement De Sidney Bechet
TTITLE9=Kennedy Rose
TTITLE10=Une Dernière Semaine À New York
TTITLE11=Patou Blues
TTITLE12=Générique (Thème Montmajour) (Reprise)
EXTD=CD US 1990 - Columbia (CK-47845) - UPC 0074644784527\n
EXTT0=
EXTT1=
EXTT2=
EXTT3=
EXTT4=
EXTT5=
EXTT6=
EXTT7=
EXTT8=
EXTT9=
EXTT10=
EXTT11=
EXTT12=
PLAYORDER=
